<svg xmlns="http://www.w3.org/2000/svg" width="32" height="32" viewBox="0 0 32 32" fill="none">
  <path d="M31.5 16C31.5 24.5604 24.5604 31.5 16 31.5C7.43959 31.5 0.5 24.5604 0.5 16C0.5 7.43959 7.43959 0.5 16 0.5C24.5604 0.5 31.5 7.43959 31.5 16Z" stroke="#EB0C5B"/>
  <path d="M17.6533 18.368H15.0933V8H17.6533V18.368ZM14.6666 21.6107C14.6666 21.1556 14.8302 20.7644 15.1573 20.4373C15.4986 20.1102 15.904 19.9467 16.3733 19.9467C16.8284 19.9467 17.2266 20.1031 17.568 20.416C17.9093 20.7289 18.08 21.1129 18.08 21.568C18.08 22.0231 17.9093 22.4142 17.568 22.7413C17.2408 23.0684 16.8426 23.232 16.3733 23.232C16.1457 23.232 15.9253 23.1893 15.712 23.104C15.5128 23.0187 15.3351 22.9049 15.1786 22.7627C15.0222 22.6204 14.8942 22.4498 14.7946 22.2507C14.7093 22.0516 14.6666 21.8382 14.6666 21.6107Z" fill="#EB0C5B"/>
</svg>