<svg width="15" height="15" viewBox="0 0 15 15" fill="none" xmlns="http://www.w3.org/2000/svg">
    <path fill-rule="evenodd" clip-rule="evenodd" d="M7.5 14C11.0899 14 14 11.0899 14 7.5C14 3.91015 11.0899 1 7.5 1C3.91015 1 1 3.91015 1 7.5C1 11.0899 3.91015 14 7.5 14Z" stroke="#9B9B9B"/>
    <path d="M6.95859 5.312H8.03859V11H6.95859V5.312ZM6.70659 3.272C6.70659 3.056 6.78259 2.872 6.93459 2.72C7.09459 2.56 7.28259 2.48 7.49859 2.48C7.71459 2.48 7.89859 2.56 8.05059 2.72C8.21059 2.872 8.29059 3.056 8.29059 3.272C8.29059 3.488 8.21059 3.676 8.05059 3.836C7.89859 3.988 7.71459 4.064 7.49859 4.064C7.28259 4.064 7.09459 3.988 6.93459 3.836C6.78259 3.676 6.70659 3.488 6.70659 3.272Z" fill="#9B9B9B"/>
</svg>
    