<svg xmlns="http://www.w3.org/2000/svg" width="19" height="18" viewBox="0 0 19 18" fill="none">
    <mask id="path-1-inside-1_892_1522" fill="white">
        <path d="M9.92349 5.75999H5.87549C4.77092 5.75999 3.87549 6.65543 3.87549 7.75999V13.12C3.87549 14.2246 4.77092 15.12 5.87549 15.12H11.9555C13.0601 15.12 13.9555 14.2246 13.9555 13.12V9.77142"/>
    </mask>
    <path d="M9.92349 4.75999H5.87549V6.75999H9.92349V4.75999ZM2.87549 7.75999V13.12H4.87549V7.75999H2.87549ZM5.87549 16.12H11.9555V14.12H5.87549V16.12ZM14.9555 13.12V9.77142H12.9555V13.12H14.9555ZM11.9555 16.12C13.6123 16.12 14.9555 14.7768 14.9555 13.12H12.9555C12.9555 13.6723 12.5078 14.12 11.9555 14.12V16.12ZM2.87549 13.12C2.87549 14.7768 4.21863 16.12 5.87549 16.12V14.12C5.3232 14.12 4.87549 13.6723 4.87549 13.12H2.87549ZM5.87549 4.75999C4.21863 4.75999 2.87549 6.10314 2.87549 7.75999H4.87549C4.87549 7.20771 5.3232 6.75999 5.87549 6.75999V4.75999Z" fill="#535353" mask="url(#path-1-inside-1_892_1522)"/>
    <path d="M11.0405 4.28965L14.5411 4.2614L8.80585 9.97019L9.27 10.4332L14.9963 4.70906L14.968 8.21712L15.6279 8.2118L15.6652 3.59246L11.0459 3.6297L11.0405 4.28965Z" fill="#535353"/>
</svg>