<svg xmlns="http://www.w3.org/2000/svg" width="127" height="20" viewBox="0 0 127 20" fill="none">
    <path d="M9.61055 10.9204C9.61055 8.85212 8.78793 7.50775 5.77837 6.34953C4.3739 5.81179 4.33377 5.79111 4.13314 5.66701C3.59141 5.31541 3.31052 4.83971 3.31052 4.28128C3.31052 3.37125 3.9325 2.73009 4.83537 2.73009C5.7583 2.73009 6.32009 3.3092 6.40034 4.34333H9.2494C9.10895 1.6546 7.24302 0 4.85543 0C2.46784 0 0.541722 1.92347 0.541722 4.34333C0.541722 6.2668 1.64523 7.73526 3.63154 8.50052C5.59779 9.26577 5.7583 9.32782 6.1997 9.67942C6.64111 10.031 6.88187 10.6101 6.88187 11.2306C6.88187 12.3268 6.05926 13.092 4.8755 13.092C3.65161 13.092 2.9895 12.4716 2.86912 11.1892H0C0.240765 14.0848 2.26721 15.8221 4.8755 15.8221C7.54398 15.8221 9.61055 13.6918 9.61055 10.9204Z" fill="black"/>
    <path d="M21.1177 15.5533V4.09514H18.4493V9.49328C18.4493 11.0238 18.3289 11.727 18.0279 12.2441C17.6266 12.9059 16.9044 13.2989 16.0015 13.2989C14.7174 13.2989 13.8948 12.7404 13.8948 9.7001V4.09514H11.2263V10.2378C11.2263 14.2709 12.8715 15.8221 15.4598 15.8221C16.804 15.8221 17.6467 15.4705 18.6499 14.4571V15.5533H21.1177Z" fill="black"/>
    <path d="M34.8937 9.78283C34.8937 6.32885 32.5663 3.82627 29.3561 3.82627C27.8513 3.82627 26.5672 4.40538 25.7045 5.4395V4.09514H23.2567V19.3795H25.9252V14.4778C26.9284 15.4085 27.9717 15.8221 29.336 15.8221C32.5462 15.8221 34.8937 13.2575 34.8937 9.78283ZM32.2052 9.84488C32.2052 11.789 30.8208 13.2989 29.0552 13.2989C27.1692 13.2989 25.7647 11.8097 25.7647 9.80352C25.7647 7.83868 27.1692 6.34953 29.015 6.34953C30.8208 6.34953 32.2052 7.85936 32.2052 9.84488Z" fill="black"/>
    <path d="M48.1389 9.78283C48.1389 6.32885 45.8115 3.82627 42.6013 3.82627C41.0966 3.82627 39.8125 4.40538 38.9497 5.4395V4.09514H36.5019V19.3795H39.1704V14.4778C40.1736 15.4085 41.2169 15.8221 42.5813 15.8221C45.7915 15.8221 48.1389 13.2575 48.1389 9.78283ZM45.4504 9.84488C45.4504 11.789 44.066 13.2989 42.3004 13.2989C40.4144 13.2989 39.0099 11.8097 39.0099 9.80352C39.0099 7.83868 40.4144 6.34953 42.2603 6.34953C44.066 6.34953 45.4504 7.85936 45.4504 9.84488Z" fill="black"/>
    <path d="M61.0832 9.90693C61.0832 6.49431 58.495 3.82627 55.1443 3.82627C51.9141 3.82627 49.2656 6.53568 49.2656 9.8242C49.2656 13.1334 51.9141 15.8221 55.1644 15.8221C58.3947 15.8221 61.0832 13.1334 61.0832 9.90693ZM58.3947 9.8242C58.3947 11.7477 56.9501 13.2989 55.1844 13.2989C53.3787 13.2989 51.9542 11.7477 51.9542 9.78283C51.9542 7.90072 53.4188 6.34953 55.1644 6.34953C56.9501 6.34953 58.3947 7.92141 58.3947 9.8242Z" fill="black"/>
    <path d="M67.637 6.47363V3.82627H67.4364C66.2927 3.82627 65.7309 4.15719 65.0287 5.212V4.09514H62.5809V15.5533H65.2494V9.18304C65.2494 7.40434 66.0319 6.51499 67.637 6.47363Z" fill="black"/>
    <path d="M73.9764 6.59772V4.09514H72.3713V0.268873H69.7028V4.09514H68.3986V6.59772H69.7028V15.5533H72.3713V6.59772H73.9764Z" fill="black"/>
    <path d="M83.3824 15.5533V14.1675H77.2428V0.268873H75.7581V15.5533H83.3824Z" fill="black"/>
    <path d="M95.8001 9.92761C95.8001 6.47363 93.3924 3.97104 90.102 3.97104C86.8517 3.97104 84.3437 6.51499 84.3437 9.8242C84.3437 13.2989 86.8115 15.8221 90.2224 15.8221C93.4326 15.8221 95.8001 13.3195 95.8001 9.92761ZM94.2953 9.94829C94.2953 12.5336 92.5698 14.4157 90.1823 14.4157C87.6542 14.4157 85.8485 12.5129 85.8485 9.86556C85.8485 7.30093 87.6743 5.37746 90.102 5.37746C92.5096 5.37746 94.2953 7.32161 94.2953 9.94829Z" fill="black"/>
    <path d="M108.887 13.5264V4.23992H107.402V6.24612C106.299 4.69493 104.955 3.97104 103.109 3.97104C99.8986 3.97104 97.4909 6.53568 97.4909 9.94829C97.4909 13.2575 99.9989 15.8221 103.209 15.8221C105.175 15.8221 106.54 14.9948 107.402 13.2575V14.0227C107.402 17.001 106.018 18.5936 103.37 18.5936C101.524 18.5936 100.46 17.9524 99.3368 15.9049H97.8922C98.6948 18.5522 100.641 20 103.41 20C105.316 20 106.921 19.2554 107.864 17.9731C108.606 16.939 108.887 15.7394 108.887 13.5264ZM107.402 9.76215C107.402 12.4095 105.597 14.4157 103.209 14.4157C100.801 14.4157 98.9957 12.4509 98.9957 9.8242C98.9957 7.23888 100.761 5.37746 103.189 5.37746C105.557 5.37746 107.402 7.30093 107.402 9.76215Z" fill="black"/>
    <path d="M112.897 15.5533V4.23992H111.412V15.5533H112.897ZM112.897 2.99897V0.392968H111.412V2.99897H112.897Z" fill="black"/>
    <path d="M126.364 12.2234H124.678C123.535 13.7952 122.471 14.4157 120.926 14.4157C118.459 14.4157 116.512 12.4095 116.512 9.90693C116.512 7.36298 118.418 5.37746 120.866 5.37746C122.491 5.37746 123.836 6.18407 124.678 7.67322H126.344C125.461 5.39814 123.354 3.97104 120.886 3.97104C117.596 3.97104 115.008 6.57704 115.008 9.86556C115.008 13.2368 117.616 15.8221 120.987 15.8221C123.254 15.8221 125.039 14.8087 126.364 12.2234Z" fill="black"/>
  </svg>